<?xml version="1.0" encoding="UTF-8"?>
<svg id="Layer_1" xmlns="http://www.w3.org/2000/svg" version="1.1" viewBox="0 0 605 68.9">
  <!-- Generator: Adobe Illustrator 29.7.1, SVG Export Plug-In . SVG Version: 2.1.1 Build 8)  -->
  <defs>
    <style>
      .st0 {
        fill: #ff0056;
      }
    </style>
  </defs>
  <g>
    <path class="st0" d="M82.3,68.9l18.2-18.2c5.4-5.4,8.5-12.8,8.5-20.5s-3-15-8.5-20.5c-5.4-5.5-12.8-8.5-20.5-8.5s-15,3-20.5,8.5l-18.3,18.2,12.9,12.9,18.2-18.2c2-2,4.7-3.1,7.6-3.1s5.5,1.1,7.6,3.1c2,2,3.1,4.7,3.1,7.6s-1.1,5.5-3.1,7.6l-18.3,18.2,12.9,12.9h0Z"/>
    <path class="st0" d="M29.4,37.8c-2-2-3.1-4.7-3.1-7.6s1.1-5.5,3.1-7.6c2-2,4.7-3.1,7.6-3.1s3.5.5,5,1.3l13.1-13.1c-5.1-4.1-11.4-6.4-18.1-6.4s-15,3-20.5,8.5c-5.5,5.4-8.5,12.7-8.5,20.5s3,15,8.5,20.5l18.2,18.2,12.9-12.9-18.3-18.2h0Z"/>
  </g>
  <g>
    <path d="M122.3,67.1V3.6h14.3v63.5h-14.3Z"/>
    <path d="M142.9,67.1V20.8h11.7l.9,4.1h.5c1.1-1.3,2.7-2.4,4.9-3.4,2.2-1,4.9-1.5,8-1.5s6.6.8,9.4,2.4c2.8,1.6,4.9,3.9,6.4,6.8,1.5,2.9,2.3,6.3,2.3,10.2v27.8h-13.5v-25.5c0-1.8-.4-3.3-1.1-4.6-.7-1.3-1.7-2.3-3-3.1-1.3-.8-2.8-1.1-4.4-1.1s-3.3.4-4.5,1.1c-1.3.8-2.3,1.8-3,3.1-.7,1.3-1.1,2.8-1.1,4.6v25.5h-13.5Z"/>
    <path d="M218.8,68c-3.1,0-5.8-.5-8-1.5s-4-2.3-5.2-3.9h-.5l-.9,4.5h-11.7V3.6h13.5v21.3h.5c1-1.3,2.6-2.4,4.9-3.4,2.2-1,4.7-1.5,7.5-1.5s7.5,1,10.8,3c3.3,2,5.9,4.9,7.8,8.5,1.9,3.7,2.9,7.8,2.9,12.5s-1,8.8-2.9,12.5c-1.9,3.7-4.5,6.5-7.8,8.5-3.3,2-6.9,3-10.8,3ZM216.4,55.6c1.9,0,3.7-.5,5.2-1.5,1.5-1,2.8-2.3,3.7-4.1.9-1.8,1.4-3.8,1.4-6.2s-.5-4.3-1.4-6.1c-.9-1.8-2.1-3.1-3.7-4-1.6-.9-3.3-1.4-5.3-1.4s-3.8.5-5.4,1.4c-1.6.9-2.8,2.2-3.7,4-.9,1.8-1.4,3.8-1.4,6.1s.5,4.4,1.4,6.2c.9,1.8,2.2,3.1,3.7,4.1,1.5,1,3.3,1.5,5.3,1.5Z"/>
    <path d="M265.2,68c-4.5,0-8.6-1-12.3-3.1-3.7-2.1-6.6-5-8.7-8.6-2.1-3.7-3.1-7.8-3.1-12.3s1-8.6,3.1-12.3c2.1-3.7,5-6.5,8.7-8.6,3.7-2.1,7.8-3.1,12.3-3.1s8.7,1,12.4,3.1c3.7,2.1,6.6,5,8.7,8.6,2.1,3.7,3.1,7.8,3.1,12.3s-1,8.6-3.1,12.3c-2.1,3.7-5,6.5-8.7,8.6-3.7,2.1-7.8,3.1-12.4,3.1ZM265.2,55.4c2,0,3.8-.5,5.4-1.5,1.6-1,2.9-2.3,3.9-4,1-1.7,1.5-3.7,1.5-6s-.5-4.2-1.5-6c-1-1.8-2.3-3.1-3.9-4-1.6-.9-3.4-1.4-5.4-1.4s-3.7.5-5.3,1.4c-1.6.9-2.9,2.3-3.9,4-1,1.8-1.5,3.8-1.5,6s.5,4.3,1.5,6c1,1.7,2.3,3.1,3.9,4,1.6,1,3.4,1.5,5.3,1.5Z"/>
    <path d="M310.7,68c-3.5,0-6.6-.8-9.4-2.4-2.8-1.6-4.9-3.8-6.4-6.8-1.5-2.9-2.3-6.3-2.3-10.2v-27.8h13.5v25.7c0,1.6.4,3.1,1.1,4.4.7,1.3,1.7,2.4,3,3.1,1.3.8,2.8,1.1,4.4,1.1s3.3-.4,4.5-1.1c1.3-.8,2.3-1.8,3-3.1.7-1.3,1.1-2.8,1.1-4.4v-25.7h13.5v46.3h-11.7l-.9-4.1h-.5c-1.2,1.4-3,2.6-5.3,3.5-2.3,1-4.9,1.5-7.7,1.5Z"/>
    <path d="M342,67.1V20.8h11.7l.9,4.1h.5c1.1-1.3,2.7-2.4,4.9-3.4,2.2-1,4.9-1.5,8-1.5s6.6.8,9.4,2.4c2.8,1.6,4.9,3.9,6.4,6.8,1.5,2.9,2.3,6.3,2.3,10.2v27.8h-13.5v-25.5c0-1.8-.4-3.3-1.1-4.6-.7-1.3-1.7-2.3-3-3.1-1.3-.8-2.8-1.1-4.4-1.1s-3.3.4-4.5,1.1c-1.3.8-2.3,1.8-3,3.1-.7,1.3-1.1,2.8-1.1,4.6v25.5h-13.5Z"/>
    <path d="M410.3,68c-3.9,0-7.5-1-10.8-3-3.3-2-5.9-4.9-7.8-8.5-1.9-3.7-2.9-7.8-2.9-12.5s1-8.8,2.9-12.5c1.9-3.7,4.5-6.5,7.8-8.5,3.3-2,6.9-3,10.8-3s5.4.5,7.6,1.5c2.2,1,3.8,2.2,4.9,3.4h.5V3.6h13.5v63.5h-11.7l-.9-4.5h-.5c-1.2,1.6-2.9,2.9-5.2,3.9s-5,1.5-8.1,1.5ZM412.8,55.5c2,0,3.8-.5,5.4-1.5,1.6-1,2.8-2.3,3.7-4,.9-1.7,1.4-3.8,1.4-6.1s-.5-4.3-1.4-6.1c-.9-1.8-2.1-3.1-3.7-4-1.6-.9-3.4-1.4-5.4-1.4s-3.7.5-5.3,1.4c-1.6.9-2.8,2.2-3.7,4-.9,1.8-1.4,3.8-1.4,6.1s.5,4.4,1.4,6.1c.9,1.7,2.1,3.1,3.7,4,1.6,1,3.3,1.5,5.3,1.5Z"/>
    <path d="M442.5,67.1V20.8h11.7l.9,4.1h.5c1.1-1.3,2.7-2.4,4.9-3.4,2.2-1,4.9-1.5,8-1.5s6.6.8,9.4,2.4c2.8,1.6,4.9,3.9,6.4,6.8,1.5,2.9,2.3,6.3,2.3,10.2v27.8h-13.5v-25.5c0-1.8-.4-3.3-1.1-4.6-.7-1.3-1.7-2.3-3-3.1-1.3-.8-2.8-1.1-4.4-1.1s-3.3.4-4.5,1.1c-1.3.8-2.3,1.8-3,3.1-.7,1.3-1.1,2.8-1.1,4.6v25.5h-13.5Z"/>
    <path d="M513.6,68c-4.5,0-8.6-1-12.3-3.1-3.7-2.1-6.6-5-8.7-8.6-2.1-3.7-3.2-7.8-3.2-12.3s1.1-8.6,3.2-12.3c2.1-3.7,5-6.5,8.7-8.6s7.8-3.1,12.3-3.1,8.3,1,11.9,3.1c3.6,2.1,6.4,4.9,8.5,8.5,2.1,3.6,3.1,7.6,3.1,11.9s0,1.8-.1,2.6c0,.8-.2,1.5-.3,2h-33.8c.2,1.7.9,3.2,1.9,4.6,1,1.4,2.3,2.5,3.8,3.3,1.5.8,3.2,1.2,5.1,1.2s3.9-.4,5.4-1.2c1.5-.8,2.5-1.6,3.3-2.5h13.7c-.7,2.1-1.9,4.3-3.7,6.5-1.8,2.2-4.3,4.1-7.4,5.8-3.1,1.6-6.9,2.4-11.2,2.4ZM523.7,39.7c-.2-1.6-.8-3.1-1.7-4.5-.9-1.4-2.1-2.5-3.5-3.3-1.4-.8-3.1-1.2-4.9-1.2s-3.6.4-5.1,1.2c-1.5.8-2.7,1.9-3.7,3.3-1,1.4-1.6,2.9-2,4.5h21Z"/>
    <path d="M557.6,67.1c-4.4,0-7.8-1.1-10-3.2s-3.4-5.2-3.4-9.3v-21h-7.3v-12.8h7.3V6.6h13.5v14.2h10.4v12.8h-10.4v18.1c0,1.1.2,2,.7,2.4.5.5,1.3.7,2.4.7h7.3v12.2h-10.5Z"/>
    <path d="M589.7,67.1c-4.4,0-7.8-1.1-10-3.2s-3.4-5.2-3.4-9.3v-21h-7.3v-12.8h7.3V6.6h13.5v14.2h10.4v12.8h-10.4v18.1c0,1.1.2,2,.7,2.4.5.5,1.3.7,2.4.7h7.3v12.2h-10.5Z"/>
  </g>
</svg>